<?xml version="1.0" encoding="utf-8"?><svg width="124" height="107" viewBox="0 0 124 107" xmlns="http://www.w3.org/2000/svg" xmlns:xlink="http://www.w3.org/1999/xlink"><svg id="card" viewBox="-1 -1 62 45" width="62" height="45" xmlns="http://www.w3.org/2000/svg"><defs><style>.acls-1{fill:#2f3238}.acls-2{fill:#26e6e6}</style></defs><path id="ablack" class="acls-1" d="M45 43H20a4 4 0 0 1-4-4 4.05 4.05 0 0 1 .55-2H16a4 4 0 0 1-4-4h2a2 2 0 0 0 2 2h16v2H20a2 2 0 0 0 0 4h25a13 13 0 0 0 0-26H30a2 2 0 0 0 0 4h10v2H30a4 4 0 0 1 0-8h15a15 15 0 0 1 0 30zm2-15a9 9 0 0 1-9-9h2a7 7 0 0 0 7 7 1 1 0 0 1 0 2zm-11 5H4a4 4 0 0 1-4-4V1a1 1 0 0 1 2 0v28a2 2 0 0 0 2 2h32a2 2 0 0 0 2-2 1 1 0 0 1 2 0 4 4 0 0 1-4 4zm2-29a2 2 0 0 0-2-2H7a1 1 0 0 1 0-2h29a4 4 0 0 1 4 4v9h-2zM7 6h26a1 1 0 0 1 0 2H7a1 1 0 0 1 0-2z"/><path id="ablue" class="acls-2" d="M7 12h14a1 1 0 0 1 0 2H7a1 1 0 0 1 0-2zm0 13h26a1 1 0 0 1 0 2H7a1 1 0 0 1 0-2z"/></svg><svg data-name="Layer 1" viewBox="-1 -1 7.66 4.83" width="7.66" height="4.83" id="down-arrow" x="100" y="48" xmlns="http://www.w3.org/2000/svg"><path data-name="Open Icon" d="M-.02 0l2.84 2.83L5.65 0z"/></svg><svg id="edit" viewBox="-1 -1 62 62" width="62" height="62" y="45" xmlns="http://www.w3.org/2000/svg"><defs><style>.ccls-1{fill:#26e6e6}.ccls-2{fill:#2f3238}</style></defs><path id="cblue" class="ccls-1" d="M40.71 19.29a1 1 0 0 1 0 1.48L22.8 38.68a1.05 1.05 0 0 1-1.48 0 1.06 1.06 0 0 1 0-1.45l17.91-17.94a1 1 0 0 1 1.48 0z"/><path id="cblack" class="ccls-2" d="M58.8 12.53L22.53 48.8a4 4 0 0 1-2.11 1.11A1.23 1.23 0 0 1 20 50h-9a1 1 0 0 1-.39-.08A1 1 0 0 1 10 49v-9a1.7 1.7 0 0 1 0-.22 4 4 0 0 1 1.13-2.34L47.44 1.17a4 4 0 0 1 5.68 0l5.68 5.68a4 4 0 0 1 0 5.68zm-1.38-4.28l-5.69-5.7a2 2 0 0 0-2.85 0L12 39.43V48h8.51l36.9-36.91a2 2 0 0 0 0-2.84zm-46.13 30a1 1 0 0 1 1.48 0l8.91 8.91a1 1 0 0 1 0 1.48 1.06 1.06 0 0 1-1.45 0l-8.91-8.91a1 1 0 0 1 0-1.48zm30-29a1 1 0 0 1 1.48 0l3.91 3.91a1 1 0 0 1 0 1.48 1.06 1.06 0 0 1-1.45 0l-3.91-3.91a1 1 0 0 1 0-1.48zM1 0a1 1 0 0 1 1 1v58a1 1 0 0 1-2 0V1a1 1 0 0 1 1-1zm59 59a1 1 0 0 1-1 1H7a1 1 0 0 1 0-2h52a1 1 0 0 1 1 1zM1 0h30a1 1 0 0 1 0 2H1a1 1 0 0 1 0-2zm57 59V29a1 1 0 0 1 2 0v30a1 1 0 0 1-2 0z"/></svg><svg id="logo" viewBox="-1 -1 38 34.73" width="38" height="34.73" x="62" y="48" xmlns="http://www.w3.org/2000/svg"><defs><style>.dcls-1,.dcls-2{fill:none;stroke-width:2px;stroke:#232323}.dcls-2{fill:#231f20;stroke-width:.75px}</style></defs><path class="dcls-1" d="M17.4 1L1 20.05 17.4 31 34 19.85z" transform="translate(.5 .52)"/><path class="dcls-2" d="M17.5 2.52h1v28h-1z"/></svg><svg id="mail" viewBox="-1 -1 62 48" width="62" height="48" x="62" xmlns="http://www.w3.org/2000/svg"><defs><style>.ecls-1{fill:#2f3238}.ecls-2{fill:#26e6e6}</style></defs><path id="eblack" class="ecls-1" d="M56 46H4a4 4 0 0 1-4-4V7a1 1 0 0 1 2 0v35a2 2 0 0 0 2 2h52a2 2 0 0 0 2-2V4a2 2 0 0 0-2-2H1a1 1 0 0 1 0-2h55a4 4 0 0 1 4 4v38a4 4 0 0 1-4 4z"/><path id="eblue" class="ecls-2" d="M53.69 6.28a1 1 0 0 1 0 1.41l-23 23a1 1 0 0 1-1.41 0 1 1 0 0 1 0-1.41l23-23a1 1 0 0 1 1.41 0zm-47.38 0a1 1 0 0 0 0 1.41l23 23a1 1 0 0 0 1.41-1.41l-23-23a1 1 0 0 0-1.41 0z"/></svg></svg>