<svg id="card" xmlns="http://www.w3.org/2000/svg" viewBox="0 0 60 43"><defs><style>.cls-1{fill:#2f3238;}.cls-2{fill:#26e6e6;}</style></defs><title>card</title><path id="black" class="cls-1" d="M45,43H20a4,4,0,0,1-4-4,4.05,4.05,0,0,1,.55-2H16a4,4,0,0,1-4-4h2a2,2,0,0,0,2,2H32v2H20a2,2,0,0,0,0,4H45a13,13,0,0,0,0-26H30a2,2,0,0,0,0,4H40v2H30a4,4,0,0,1,0-8H45a15,15,0,0,1,0,30Zm2-15a9,9,0,0,1-9-9h2a7,7,0,0,0,7,7,1,1,0,0,1,0,2ZM36,33H4a4,4,0,0,1-4-4V1A1,1,0,0,1,2,1V29a2,2,0,0,0,2,2H36a2,2,0,0,0,2-2h0a1,1,0,0,1,2,0h0A4,4,0,0,1,36,33ZM38,4a2,2,0,0,0-2-2H7A1,1,0,0,1,7,0H36a4,4,0,0,1,4,4v9H38ZM7,6H33a1,1,0,0,1,0,2H7A1,1,0,0,1,7,6Z"/><path id="blue" class="cls-2" d="M7,12H21a1,1,0,0,1,0,2H7a1,1,0,0,1,0-2ZM7,25H33a1,1,0,0,1,0,2H7a1,1,0,0,1,0-2Z"/></svg>