<svg id="edit" xmlns="http://www.w3.org/2000/svg" viewBox="0 0 60 60"><defs><style>.cls-1{fill:#26e6e6;}.cls-2{fill:#2f3238;}</style></defs><title>edit</title><path id="blue" class="cls-1" d="M40.71,19.29a1,1,0,0,1,0,1.48h0L22.8,38.68a1.05,1.05,0,0,1-1.48,0,1.06,1.06,0,0,1,0-1.45L39.23,19.29A1,1,0,0,1,40.71,19.29Z" transform="translate(0 0)"/><path id="black" class="cls-2" d="M58.8,12.53,22.53,48.8a4,4,0,0,1-2.11,1.11A1.23,1.23,0,0,1,20,50H11a1,1,0,0,1-.39-.08A1,1,0,0,1,10,49V40a1.7,1.7,0,0,1,0-.22,4,4,0,0,1,1.13-2.34L47.44,1.17a4,4,0,0,1,5.68,0L58.8,6.85A4,4,0,0,1,58.8,12.53ZM57.42,8.25l-5.69-5.7a2,2,0,0,0-2.85,0h0L12,39.43V48h8.51l36.9-36.91a2,2,0,0,0,0-2.84h0Zm-46.13,30a1,1,0,0,1,1.48,0h0l8.91,8.91a1,1,0,0,1,0,1.48,1.06,1.06,0,0,1-1.45,0l-8.91-8.91a1,1,0,0,1,0-1.48Zm30-29a1,1,0,0,1,1.48,0h0l3.91,3.91a1,1,0,0,1,0,1.48,1.06,1.06,0,0,1-1.45,0l-3.91-3.91a1,1,0,0,1,0-1.48ZM1,0A1,1,0,0,1,2,1V59a1,1,0,0,1-2,0V1A1,1,0,0,1,1,0ZM60,59a1,1,0,0,1-1,1H7a1,1,0,0,1,0-2H59A1,1,0,0,1,60,59ZM1,0H31a1,1,0,0,1,0,2H1A1,1,0,0,1,1,0ZM58,59V29a1,1,0,0,1,2,0V59a1,1,0,0,1-2,0Z" transform="translate(0 0)"/></svg>