<svg id="mail" xmlns="http://www.w3.org/2000/svg" viewBox="0 0 60 46"><defs><style>.cls-1{fill:#2f3238;}.cls-2{fill:#26e6e6;}</style></defs><title>mail</title><path id="black" class="cls-1" d="M56,46H4a4,4,0,0,1-4-4V7A1,1,0,0,1,2,7V42a2,2,0,0,0,2,2H56a2,2,0,0,0,2-2V4a2,2,0,0,0-2-2H1A1,1,0,0,1,1,0H56a4,4,0,0,1,4,4V42A4,4,0,0,1,56,46Z"/><path id="blue" class="cls-2" d="M53.69,6.28a1,1,0,0,1,0,1.41h0l-23,23a1,1,0,0,1-1.41,0,1,1,0,0,1,0-1.41l23-23a1,1,0,0,1,1.41,0Zm-47.38,0a1,1,0,0,0,0,1.41h0l23,23a1,1,0,0,0,1.41-1.41l-23-23a1,1,0,0,0-1.41,0Z"/></svg>